<svg xmlns="http://www.w3.org/2000/svg" width="841.72" height="125.64" viewBox="-170.86 12.18 841.72 125.64" style="background:0 0" preserveAspectRatio="xMidYMid"><defs><filter id="editing-extrude-glow"><feFlood flood-color="#333" result="flood-1"/><feMorphology in="SourceAlpha" operator="erode" radius="1" result="erode"/><feComposite in="flood-1" in2="erode" operator="in" result="comp1"/><feConvolveMatrix divisor="1" in="comp1" kernelMatrix="0 0 0 1 1 1 0 0 0" order="3,3" result="convolve"/><feOffset dx="-3" dy="0" in="convolve" result="extrude"/><feComposite in="flood-1" in2="extrude" operator="in" result="comp-extrude"/><feFlood flood-color="#000" result="flood-2"/><feComposite in="flood-2" in2="SourceAlpha" operator="in" result="comp2"/><feMorphology in="comp2" operator="dilate" radius="1" result="dilate"/><feOffset dx="-4.5" dy="0" in="dilate" result="offset"/><feGaussianBlur in="offset" result="blur" stdDeviation="5.8"/><feComponentTransfer in="blur" result="shadow"><feFuncA intercept="-.2" slope=".8" type="linear"/></feComponentTransfer><feMerge><feMergeNode in="shadow"/><feMergeNode in="comp-extrude"/><feMergeNode in="SourceGraphic"/></feMerge></filter></defs><g filter="url(#editing-extrude-glow)"><g><path fill="#9b03c9" d="M26.47 0.06L26.47 0.06L21.69 0.06L20.91 0.03L11.38-0.13L11.38-0.13Q10.63-0.16 8.50-0.16L8.50-0.16L8.50-0.16Q4.19-0.16 4.16-2.91L4.16-2.91L4.16-2.91Q4.16-3.41 4.61-4.41L4.61-4.41L4.61-4.41Q5.06-5.41 5.33-6.22L5.33-6.22L5.33-6.22Q5.59-7.03 6.25-13.41L6.25-13.41L6.25-13.41Q6.91-19.78 6.91-30.50L6.91-30.50L6.97-32.03L6.97-34.75L6.97-34.75Q6.97-36.38 6.27-38.33L6.27-38.33L6.27-38.33Q5.56-40.28 5.56-41.08L5.56-41.08L5.56-41.08Q5.56-41.88 6.47-42.86L6.47-42.86L6.47-42.86Q7.38-43.84 9.34-43.84L9.34-43.84L10.84-43.84L10.84-43.84Q13.25-43.84 14.58-42.89L14.58-42.89L14.58-42.89Q15.91-41.94 15.91-40.89L15.91-40.89L15.91-40.89Q15.91-39.84 15.16-38.05L15.16-38.05L15.16-38.05Q14.41-36.25 14.16-33.84L14.16-33.84L14.16-33.84Q13.16-24.25 13.16-15.66L13.16-15.66L13.09-14.13L13.06-11.81L13.06-11.81Q13.06-6.94 14.16-5.97L14.16-5.97L14.16-5.97Q15.25-5 19.41-5L19.41-5L19.41-5Q23.56-5 26.41-5.91L26.41-5.91L26.41-5.91Q26.97-6.09 28.59-6.75L28.59-6.75L28.59-6.75Q30.22-7.41 31.13-7.41L31.13-7.41L31.13-7.41Q32.97-7.41 32.97-5.03L32.97-5.03L32.97-5.03Q32.97-1.94 31.55-0.94L31.55-0.94L31.55-0.94Q30.13 0.06 26.47 0.06ZM48.22-3.94L48.22-3.94L49.03-3.94L49.03-3.94Q51.59-3.94 53.55-5.67L53.55-5.67L53.55-5.67Q55.50-7.41 55.50-9.69L55.50-9.69L55.56-10.09L55.56-10.50L55.63-11.47L55.63-13.25L55.63-13.25Q55.63-15.06 53.78-15.06L53.78-15.06L52.38-15.06L52.16-15.03L50.94-14.94L50.94-14.94Q50.06-14.81 49.69-14.81L49.69-14.81L49.69-14.81Q47.16-14.81 45-12.91L45-12.91L45-12.91Q43.50-11.56 43.50-9.09L43.50-9.09L43.50-8.47L43.50-8.47Q43.50-6.38 44.86-5.16L44.86-5.16L44.86-5.16Q46.22-3.94 48.22-3.94ZM41.25-23.91L41.25-23.91L41.25-23.91Q39.16-23.91 39.16-26.59L39.16-26.59L39.16-26.59Q39.16-28.59 42.55-30.08L42.55-30.08L42.55-30.08Q45.94-31.56 49.59-31.56L49.59-31.56L51.16-31.56L51.16-31.56Q54.31-31.56 56.72-30.39L56.72-30.39L56.72-30.39Q59.13-29.22 60.39-27.22L60.39-27.22L60.39-27.22Q61.66-25.22 61.94-22L61.94-22L61.94-22Q62-21.25 62-14.72L62-14.72L62-14.72Q62-8.19 62.17-7.20L62.17-7.20L62.17-7.20Q62.34-6.22 63.17-4.81L63.17-4.81L63.17-4.81Q64-3.41 64-2.50L64-2.50L64-2.50Q64-1.59 63.14-0.95L63.14-0.95L63.14-0.95Q62.28-0.31 60.66-0.31L60.66-0.31L60.66-0.31Q59.03-0.31 57.13-1.11L57.13-1.11L57.13-1.11Q55.22-1.91 54.34-1.91L54.34-1.91L54.34-1.91Q54.25-1.91 51.22-0.80L51.22-0.80L51.22-0.80Q48.19 0.31 46.09 0.31L46.09 0.31L45.41 0.31L45.41 0.31Q41.91 0.31 39.45-1.91L39.45-1.91L39.45-1.91Q37-4.13 37-8.22L37-8.22L37-8.22Q37-12.31 39.69-14.61L39.69-14.61L39.69-14.61Q42.38-16.91 46.22-17.75L46.22-17.75L46.22-17.75Q47.38-18 50.06-18.41L50.06-18.41L50.06-18.41Q52.75-18.81 53.72-19.25L53.72-19.25L53.72-19.25Q55.41-20.03 55.41-22.20L55.41-22.20L55.41-22.20Q55.41-24.38 53.97-25.61L53.97-25.61L53.97-25.61Q52.53-26.84 50.55-26.84L50.55-26.84L50.55-26.84Q48.56-26.84 45.34-25.38L45.34-25.38L45.34-25.38Q42.13-23.91 41.25-23.91ZM71.34-28.09L71.34-28.09L71.34-28.09Q71.34-30.06 74.66-30.06L74.66-30.06L75.38-30.06L75.38-30.06Q77.44-30.06 78.16-28.41L78.16-28.41L78.16-28.41Q78.88-26.75 78.88-22.22L78.88-22.22L78.50-11.78L78.50-11.78Q78.50-4.50 83.72-4.50L83.72-4.50L83.72-4.50Q85.63-4.50 87.38-5.84L87.38-5.84L87.38-5.84Q89.13-7.19 89.97-9.06L89.97-9.06L89.97-9.06Q91.81-13.19 91.81-23.84L91.81-23.84L91.75-25.22L91.75-26.44L91.75-26.44Q91.75-28.09 92.50-28.84L92.50-28.84L92.50-28.84Q93.25-29.59 95.13-29.59L95.13-29.59L95.13-29.59Q97-29.59 97.59-28.69L97.59-28.69L97.59-28.69Q98.19-27.78 98.19-25.75L98.19-25.75L98.13-24.09L98-16.72L98-16.72Q98-14.94 98.22-11.25L98.22-11.25L98.22-11.25Q98.44-7.56 98.69-5.86L98.69-5.86L98.69-5.86Q98.94-4.16 98.94-3.84L98.94-3.84L98.94-3.84Q98.94-1.06 94.84-1.06L94.84-1.06L94.84-1.06Q93.44-1.06 92.05-2.11L92.05-2.11L92.05-2.11Q90.66-3.16 90.08-3.16L90.08-3.16L90.08-3.16Q89.50-3.16 88.13-2.47L88.13-2.47L88.13-2.47Q84.22-0.50 81.47-0.50L81.47-0.50L80.69-0.50L80.69-0.50Q76.22-0.50 74.13-3.25L74.13-3.25L74.13-3.25Q72.03-6 72.03-13.16L72.03-13.16L72.34-22.63L72.34-22.63Q72.34-24.41 71.84-26.03L71.84-26.03L71.84-26.03Q71.34-27.66 71.34-28.09ZM108.69-16.25L108.69-16.25L108.69-18.66L108.69-18.66Q108.69-23 108.22-25.02L108.22-25.02L108.22-25.02Q107.75-27.03 107.75-27.84L107.75-27.84L107.75-27.84Q107.75-29.75 110.53-29.75L110.53-29.75L110.53-29.75Q113.31-29.75 114.56-28.72L114.56-28.72L114.56-28.72Q114.91-28.44 115.45-27.63L115.45-27.63L115.45-27.63Q116-26.81 116.44-26.81L116.44-26.81L116.44-26.81Q116.53-26.81 119.16-28.41L119.16-28.41L119.16-28.41Q121.78-30 123.66-30L123.66-30L124.13-30L124.13-30Q125.66-30 126.56-29.27L126.56-29.27L126.56-29.27Q127.47-28.53 127.47-27.47L127.47-27.47L127.47-27.06L127.47-27.06Q127.47-25.78 126.58-25.22L126.58-25.22L126.58-25.22Q125.69-24.66 123.75-24.66L123.75-24.66L123.75-24.66Q119.34-24.66 117.33-21.56L117.33-21.56L117.33-21.56Q115.31-18.47 115.31-10.63L115.31-10.63L115.31-10.63Q115.31-9.50 115.70-7.16L115.70-7.16L115.70-7.16Q116.09-4.81 116.09-3.63L116.09-3.63L116.09-3.63Q116.09-2.44 114.81-1.34L114.81-1.34L114.81-1.34Q113.53-0.25 111.56-0.25L111.56-0.25L110.50-0.25L110.50-0.25Q108.78-0.25 107.86-1.08L107.86-1.08L107.86-1.08Q106.94-1.91 106.94-3.11L106.94-3.11L106.94-3.11Q106.94-4.31 107.38-5.56L107.38-5.56L107.38-5.56Q108.56-8.94 108.56-13L108.56-13L108.56-13Q108.69-15.25 108.69-16.25ZM137.84-19L137.84-19L137.84-18.50L137.84-18.50Q137.84-17.56 139.56-17.56L139.56-17.56L140.31-17.56L140.50-17.59L142.03-17.72L142.03-17.72Q144.44-18.06 145.16-18.06L145.16-18.06L145.16-18.06Q148.56-18.06 150.28-19.34L150.28-19.34L150.28-19.34Q151.09-19.97 151.09-21.56L151.09-21.56L151.09-21.91L151.09-21.91Q151.09-24.25 149.55-25.63L149.55-25.63L149.55-25.63Q148-27 145.84-27L145.84-27L145.63-27L145.44-26.97L145.44-26.97Q142.41-26.97 140.13-24.41L140.13-24.41L140.13-24.41Q137.84-21.84 137.84-19ZM144.66 0.41L144.66 0.41L143.97 0.41L143.97 0.41Q138 0.41 134.47-3.39L134.47-3.39L134.47-3.39Q130.94-7.19 130.94-13.53L130.94-13.53L130.94-14.91L130.94-14.91Q130.94-17.94 132.13-21.06L132.13-21.06L132.13-21.06Q134.53-27.31 139.97-29.69L139.97-29.69L139.97-29.69Q142.84-30.97 145.81-30.97L145.81-30.97L147.16-30.97L147.16-30.97Q151.25-30.97 154.08-28.23L154.08-28.23L154.08-28.23Q156.91-25.50 156.91-21.19L156.91-21.19L156.91-20.56L156.91-20.56Q156.91-17.50 154.47-16.22L154.47-16.22L154.47-16.22Q152.78-15.31 146.59-14.41L146.59-14.41L146.59-14.41Q140.41-13.50 139.84-13.31L139.84-13.31L139.84-13.31Q137.97-12.66 137.97-10.81L137.97-10.81L137.97-10.81Q137.97-8.25 140.16-6.44L140.16-6.44L140.16-6.44Q142.34-4.63 146.03-4.63L146.03-4.63L146.03-4.63Q147.75-4.63 150.72-5.56L150.72-5.56L150.72-5.56Q153.69-6.50 154.16-6.50L154.16-6.50L154.16-6.50Q155.75-6.50 155.75-5.13L155.75-5.13L155.75-5.13Q155.75-3.28 152.16-1.44L152.16-1.44L152.16-1.44Q148.56 0.41 144.66 0.41ZM165.41-43.44L165.41-43.44L165.41-43.44Q165.41-45.72 169.69-45.72L169.69-45.72L170.25-45.72L170.25-45.72Q172.03-45.72 172.69-44.86L172.69-44.86L172.69-44.86Q173.34-44 173.34-41.53L173.34-41.53L173.09-36.88L173.09-36.88Q173-35.78 173-35.69L173-35.69L172.94-34.50L172.94-34.50Q172.88-33.34 172.81-32.16L172.81-32.16L172.72-30.97L172.63-29.19L172.63-29.19Q172.13-19.69 172.13-15.17L172.13-15.17L172.13-15.17Q172.13-10.66 172.53-8.69L172.53-8.69L172.53-8.69Q172.94-6.72 173.81-5.34L173.81-5.34L173.81-5.34Q174.69-3.97 174.69-3.53L174.69-3.53L174.69-3.16L174.69-3.16Q174.69-1.78 173.33-0.97L173.33-0.97L173.33-0.97Q171.97-0.16 169.66-0.16L169.66-0.16L168.03-0.16L168.03-0.16Q166.59-0.16 165.52-0.98L165.52-0.98L165.52-0.98Q164.44-1.81 164.44-2.88L164.44-2.88L164.44-3.72L164.63-5.03L164.63-5.03Q165-7.75 165.08-9.11L165.08-9.11L165.08-9.11Q165.16-10.47 165.34-12.89L165.34-12.89L165.34-12.89Q165.53-15.31 165.95-23.23L165.95-23.23L165.95-23.23Q166.38-31.16 166.38-31.75L166.38-31.75L166.50-34.09L166.56-36.41L166.56-36.41Q166.56-39.72 165.98-41.14L165.98-41.14L165.98-41.14Q165.41-42.56 165.41-43.44ZM212.84-21.34L214.56-21.34L214.56-21.34Q219.16-21.34 221.98-23.97L221.98-23.97L221.98-23.97Q224.81-26.59 224.81-30.97L224.81-30.97L224.81-32.31L224.81-32.31Q224.81-36.03 222.39-38.08L222.39-38.08L222.39-38.08Q219.97-40.13 216.03-40.13L216.03-40.13L215.16-40.13L215.16-40.13Q212.03-40.13 211.14-39.31L211.14-39.31L211.14-39.31Q210.25-38.50 210.25-35.88L210.25-35.88L210.25-35.88Q210.19-35.25 210.19-34.97L210.19-34.97L210.06-32.81L210.06-32.81Q210.06-32.50 210.06-32.19L210.06-32.19L209.84-28.19L209.81-27.88L209.81-27.88Q209.81-27.56 209.81-27.25L209.81-27.25L209.66-24.53L209.66-23.38L209.66-23.38Q209.66-21.41 212.31-21.41L212.31-21.41L212.84-21.34ZM205.09-0.66L204.47-0.66L204.47-0.66Q200.59-0.66 200.59-3.63L200.59-3.63L200.59-3.63Q200.59-4.06 201.45-6.50L201.45-6.50L201.45-6.50Q202.31-8.94 202.75-14.02L202.75-14.02L202.75-14.02Q203.19-19.09 203.19-23.06L203.19-23.06L203.28-25.19L203.28-25.19Q203.38-27.31 203.38-27.97L203.38-27.97L203.41-28.66L203.41-32.72L203.41-32.72Q203.41-38.41 203.11-40L203.11-40L203.11-40Q202.81-41.59 202.81-42L202.81-42L202.81-42Q202.81-43.31 205.63-43.72L205.63-43.72L205.63-43.72Q209.69-44.31 216.88-44.31L216.88-44.31L216.88-44.31Q227.69-44.31 230.78-37.72L230.78-37.72L230.78-37.72Q231.94-35.28 231.94-32.78L231.94-32.78L231.94-32L231.94-32Q231.94-26.03 227.94-22.22L227.94-22.22L227.94-22.22Q226.09-20.44 223.98-19.52L223.98-19.52L223.98-19.52Q221.88-18.59 218.22-17.84L218.22-17.84L218.22-17.84Q209.50-16.06 209.50-10.94L209.50-10.94L209.50-10.94Q209.50-9.63 209.84-7.95L209.84-7.95L209.84-7.95Q210.19-6.28 210.19-5.59L210.19-5.59L210.19-5.59Q210.19-3.56 208.67-2.11L208.67-2.11L208.67-2.11Q207.16-0.66 205.09-0.66L205.09-0.66ZM237.06-28.09L237.06-28.09L237.06-28.09Q237.06-30.06 240.38-30.06L240.38-30.06L241.09-30.06L241.09-30.06Q243.16-30.06 243.88-28.41L243.88-28.41L243.88-28.41Q244.59-26.75 244.59-22.22L244.59-22.22L244.22-11.78L244.22-11.78Q244.22-4.50 249.44-4.50L249.44-4.50L249.44-4.50Q251.34-4.50 253.09-5.84L253.09-5.84L253.09-5.84Q254.84-7.19 255.69-9.06L255.69-9.06L255.69-9.06Q257.53-13.19 257.53-23.84L257.53-23.84L257.47-25.22L257.47-26.44L257.47-26.44Q257.47-28.09 258.22-28.84L258.22-28.84L258.22-28.84Q258.97-29.59 260.84-29.59L260.84-29.59L260.84-29.59Q262.72-29.59 263.31-28.69L263.31-28.69L263.31-28.69Q263.91-27.78 263.91-25.75L263.91-25.75L263.84-24.09L263.72-16.72L263.72-16.72Q263.72-14.94 263.94-11.25L263.94-11.25L263.94-11.25Q264.16-7.56 264.41-5.86L264.41-5.86L264.41-5.86Q264.66-4.16 264.66-3.84L264.66-3.84L264.66-3.84Q264.66-1.06 260.56-1.06L260.56-1.06L260.56-1.06Q259.16-1.06 257.77-2.11L257.77-2.11L257.77-2.11Q256.38-3.16 255.80-3.16L255.80-3.16L255.80-3.16Q255.22-3.16 253.84-2.47L253.84-2.47L253.84-2.47Q249.94-0.50 247.19-0.50L247.19-0.50L246.41-0.50L246.41-0.50Q241.94-0.50 239.84-3.25L239.84-3.25L239.84-3.25Q237.75-6 237.75-13.16L237.75-13.16L238.06-22.63L238.06-22.63Q238.06-24.41 237.56-26.03L237.56-26.03L237.56-26.03Q237.06-27.66 237.06-28.09ZM285-3.97L285-3.97L285.94-3.97L285.94-3.97Q289.34-3.97 291.67-7.36L291.67-7.36L291.67-7.36Q294-10.75 294-16.59L294-16.59L294-17.59L293.97-17.94L293.94-18.59L293.94-18.59Q293.91-18.94 293.91-19.25L293.91-19.25L293.91-19.25Q293.91-22.28 292.22-24.58L292.22-24.58L292.22-24.58Q290.53-26.88 288.09-26.88L288.09-26.88L287.19-26.88L287.19-26.88Q285.66-26.88 283.83-25.81L283.83-25.81L283.83-25.81Q282-24.75 281.25-23.31L281.25-23.31L281.25-23.31Q279.59-20.19 279.59-13.44L279.59-13.44L279.59-10.56L279.59-10.56Q279.69-9.63 279.69-9L279.69-9L279.69-9Q279.69-6.75 281.08-5.36L281.08-5.36L281.08-5.36Q282.47-3.97 285-3.97ZM280.91-33.28L280.91-31.44L280.91-31.44Q280.91-30.25 281.30-29.66L281.30-29.66L281.30-29.66Q281.69-29.06 283.38-29.06L283.38-29.06L283.38-29.06Q283.41-29.06 285.42-29.53L285.42-29.53L285.42-29.53Q287.44-30 289.59-30L289.59-30L289.59-30Q294.25-30 297.38-26.31L297.38-26.31L297.38-26.31Q300.50-22.63 300.50-17.31L300.50-17.31L300.50-15.06L300.50-15.06Q300.50-12.44 299.47-9.50L299.47-9.50L299.47-9.50Q298.41-6.56 296.47-4.41L296.47-4.41L296.47-4.41Q292.50-0.03 286.69-0.03L286.69-0.03L286-0.03L286-0.03Q284.38-0.03 281.81-0.66L281.81-0.66L281.81-0.66Q279.25-1.28 278.47-1.28L278.47-1.28L276.38-1.09L276.38-1.09Q273.16-1.09 273.16-4.31L273.16-4.31L273.16-5.59L273.16-5.59Q273.16-7.50 273.92-19.50L273.92-19.50L273.92-19.50Q274.69-31.50 274.69-34.81L274.69-34.81L274.69-34.81Q274.69-38.13 274.16-40.31L274.16-40.31L274.16-40.31Q273.63-42.50 273.63-42.69L273.63-42.69L273.63-42.69Q273.63-45.31 276.59-45.31L276.59-45.31L277.22-45.31L277.22-45.31Q279.75-45.31 280.44-44.11L280.44-44.11L280.44-44.11Q281.13-42.91 281.13-39.66L281.13-39.66L280.97-34.69L280.91-33.28ZM308.84-43.44L308.84-43.44L308.84-43.44Q308.84-45.72 313.13-45.72L313.13-45.72L313.69-45.72L313.69-45.72Q315.47-45.72 316.13-44.86L316.13-44.86L316.13-44.86Q316.78-44 316.78-41.53L316.78-41.53L316.53-36.88L316.53-36.88Q316.44-35.78 316.44-35.69L316.44-35.69L316.38-34.50L316.38-34.50Q316.31-33.34 316.25-32.16L316.25-32.16L316.16-30.97L316.06-29.19L316.06-29.19Q315.56-19.69 315.56-15.17L315.56-15.17L315.56-15.17Q315.56-10.66 315.97-8.69L315.97-8.69L315.97-8.69Q316.38-6.72 317.25-5.34L317.25-5.34L317.25-5.34Q318.13-3.97 318.13-3.53L318.13-3.53L318.13-3.16L318.13-3.16Q318.13-1.78 316.77-0.97L316.77-0.97L316.77-0.97Q315.41-0.16 313.09-0.16L313.09-0.16L311.47-0.16L311.47-0.16Q310.03-0.16 308.95-0.98L308.95-0.98L308.95-0.98Q307.88-1.81 307.88-2.88L307.88-2.88L307.88-3.72L308.06-5.03L308.06-5.03Q308.44-7.75 308.52-9.11L308.52-9.11L308.52-9.11Q308.59-10.47 308.78-12.89L308.78-12.89L308.78-12.89Q308.97-15.31 309.39-23.23L309.39-23.23L309.39-23.23Q309.81-31.16 309.81-31.75L309.81-31.75L309.94-34.09L310-36.41L310-36.41Q310-39.72 309.42-41.14L309.42-41.14L309.42-41.14Q308.84-42.56 308.84-43.44ZM335.66-40.63L335.66-40.63L335.66-40.25L335.66-40.25Q335.66-38.66 334.73-37.55L334.73-37.55L334.73-37.55Q333.81-36.44 331.91-36.44L331.91-36.44L331.41-36.44L330.44-36.56L330.44-36.56Q329.59-36.56 328.81-37.34L328.81-37.34L328.81-37.34Q328.03-38.13 328.03-39.69L328.03-39.69L328.03-40.06L328.19-41.19L328.19-41.19Q328.19-41.84 328.98-42.81L328.98-42.81L328.98-42.81Q329.78-43.78 331.03-43.78L331.03-43.78L331.75-43.88L332.38-43.88L333.25-43.75L333.25-43.75Q334.06-43.75 334.86-42.95L334.86-42.95L334.86-42.95Q335.66-42.16 335.66-40.63ZM334.19-27.44L334.19-27.44L333.84-19.03L333.78-18.19L333.69-15.63L333.69-14.41L333.69-14.41Q333.69-9.91 333.95-8.50L333.95-8.50L333.95-8.50Q334.22-7.09 334.97-5.77L334.97-5.77L334.97-5.77Q335.72-4.44 335.72-3.84L335.72-3.84L335.72-3.56L335.72-3.56Q335.72-2.03 334.16-1.13L334.16-1.13L334.16-1.13Q332.59-0.22 329.91-0.22L329.91-0.22L329.13-0.22L329.13-0.22Q327.56-0.22 326.75-0.92L326.75-0.92L326.75-0.92Q325.94-1.63 325.94-2.44L325.94-2.44L325.94-3.13L325.94-3.13Q325.94-3.53 326.66-6.02L326.66-6.02L326.66-6.02Q327.38-8.50 327.38-12.78L327.38-12.78L327.38-12.78Q327.47-14 327.47-14.47L327.47-14.47L327.56-16.19L327.63-17.03L327.63-17.03Q327.78-19.22 327.78-20.44L327.78-20.44L327.81-21.69L327.81-21.69Q327.81-24.03 327.05-25.84L327.05-25.84L327.05-25.84Q326.28-27.66 326.28-28.09L326.28-28.09L326.28-28.09Q326.28-30.34 330.53-30.34L330.53-30.34L331.66-30.34L331.66-30.34Q333.25-30.34 333.72-29.52L333.72-29.52L333.72-29.52Q334.19-28.69 334.19-27.44ZM342.41-13L342.41-13L342.41-14.44L342.41-14.44Q342.41-18.38 343.63-21.41L343.63-21.41L343.63-21.41Q345.97-27.28 350.81-29.53L350.81-29.53L350.81-29.53Q353.97-31.03 357.34-31.03L357.34-31.03L358.03-31.03L358.03-31.03Q361.75-31.03 364.19-29.56L364.19-29.56L364.19-29.56Q366.63-28.09 366.63-25.97L366.63-25.97L366.63-25.97Q366.63-23.50 364.25-23.50L364.25-23.50L364.25-23.50Q363.81-23.50 361.19-24.88L361.19-24.88L361.19-24.88Q358.56-26.22 356.88-26.22L356.88-26.22L356.88-26.22Q356.84-26.22 356.81-26.22L356.81-26.22L356.81-26.22Q353.13-26.22 351.05-23.03L351.05-23.03L351.05-23.03Q348.97-19.84 348.97-14.72L348.97-14.72L348.97-14.72Q348.97-9.59 351.17-7.13L351.17-7.13L351.17-7.13Q353.38-4.66 357.31-4.66L357.31-4.66L357.31-4.66Q358.94-4.66 361.78-5.58L361.78-5.58L361.78-5.58Q364.63-6.50 365.25-6.50L365.25-6.50L365.25-6.50Q366.53-6.50 366.53-5.16L366.53-5.16L366.53-5.16Q366.53-3.34 362.94-1.50L362.94-1.50L362.94-1.50Q359.34 0.34 355.88 0.34L355.88 0.34L355.88 0.34Q346.59 0.34 343.59-6.97L343.59-6.97L343.59-6.97Q342.41-9.88 342.41-13ZM418.53-38.38L418.53-38.38L418.53-38.38Q418.53-36.91 417.88-36.06L417.88-36.06L417.88-36.06Q417.22-35.22 416.73-35.22L416.73-35.22L416.73-35.22Q416.25-35.22 411.75-37.94L411.75-37.94L411.75-37.94Q409-39.59 405.98-39.59L405.98-39.59L405.98-39.59Q402.97-39.59 400.86-38.08L400.86-38.08L400.86-38.08Q398.75-36.56 398.75-33.84L398.75-33.84L398.75-33.84Q398.75-31.13 401.03-29.03L401.03-29.03L401.03-29.03Q402.19-27.97 408.06-25.17L408.06-25.17L408.06-25.17Q413.94-22.38 416.19-20.09L416.19-20.09L416.19-20.09Q419.31-16.91 419.31-12.81L419.31-12.81L419.31-11.75L419.31-11.75Q419.28-9.28 418.09-6.91L418.09-6.91L418.09-6.91Q415.81-2.41 410.38-0.59L410.38-0.59L410.38-0.59Q407.56 0.34 404.13 0.34L404.13 0.34L404.13 0.34Q393.47 0.34 391.22-4.22L391.22-4.22L391.22-4.22Q390.44-5.81 390.44-7.13L390.44-7.13L390.44-7.13Q390.44-8.38 391.13-9.19L391.13-9.19L391.13-9.19Q391.81-10.03 392.69-10.03L392.69-10.03L392.69-10.03Q393.56-10.03 395.55-8.34L395.55-8.34L395.55-8.34Q397.53-6.66 399.63-5.64L399.63-5.64L399.63-5.64Q401.72-4.63 404.91-4.63L404.91-4.63L404.91-4.63Q408.09-4.63 410.30-6.31L410.30-6.31L410.30-6.31Q412.50-8 412.50-11.13L412.50-11.13L412.50-11.13Q412.50-14.25 409.34-16.66L409.34-16.66L409.34-16.66Q407.94-17.72 402.64-20.23L402.64-20.23L402.64-20.23Q397.34-22.75 395.16-25.09L395.16-25.09L395.16-25.09Q392.25-28.19 392.25-32.53L392.25-32.53L392.25-32.53Q392.25-38.03 396.31-41.20L396.31-41.20L396.31-41.20Q400.38-44.38 406.31-44.38L406.31-44.38L407.41-44.38L407.41-44.38Q413.56-44.38 416.05-42.77L416.05-42.77L416.05-42.77Q418.53-41.16 418.53-38.38ZM425.25-13L425.25-13L425.25-14.44L425.25-14.44Q425.25-18.38 426.47-21.41L426.47-21.41L426.47-21.41Q428.81-27.28 433.66-29.53L433.66-29.53L433.66-29.53Q436.81-31.03 440.19-31.03L440.19-31.03L440.88-31.03L440.88-31.03Q444.59-31.03 447.03-29.56L447.03-29.56L447.03-29.56Q449.47-28.09 449.47-25.97L449.47-25.97L449.47-25.97Q449.47-23.50 447.09-23.50L447.09-23.50L447.09-23.50Q446.66-23.50 444.03-24.88L444.03-24.88L444.03-24.88Q441.41-26.22 439.72-26.22L439.72-26.22L439.72-26.22Q439.69-26.22 439.66-26.22L439.66-26.22L439.66-26.22Q435.97-26.22 433.89-23.03L433.89-23.03L433.89-23.03Q431.81-19.84 431.81-14.72L431.81-14.72L431.81-14.72Q431.81-9.59 434.02-7.13L434.02-7.13L434.02-7.13Q436.22-4.66 440.16-4.66L440.16-4.66L440.16-4.66Q441.78-4.66 444.63-5.58L444.63-5.58L444.63-5.58Q447.47-6.50 448.09-6.50L448.09-6.50L448.09-6.50Q449.38-6.50 449.38-5.16L449.38-5.16L449.38-5.16Q449.38-3.34 445.78-1.50L445.78-1.50L445.78-1.50Q442.19 0.34 438.72 0.34L438.72 0.34L438.72 0.34Q429.44 0.34 426.44-6.97L426.44-6.97L426.44-6.97Q425.25-9.88 425.25-13ZM459.84-0.59L459.84-0.59L459.84-0.59Q456.16-0.59 456.16-3.22L456.16-3.22L456.16-3.22Q456.16-4.41 456.73-6.75L456.73-6.75L456.73-6.75Q457.31-9.09 457.50-11.08L457.50-11.08L457.50-11.08Q457.69-13.06 458.17-23.94L458.17-23.94L458.17-23.94Q458.66-34.81 458.66-37.19L458.66-37.19L458.66-40.88L458.47-43.50L458.47-43.50Q458.47-44.97 461.17-44.97L461.17-44.97L461.17-44.97Q463.88-44.97 464.69-42.88L464.69-42.88L464.69-42.88Q465.09-41.81 465.09-35.94L465.09-35.94L465.09-35.94Q465.09-30.06 465.33-29.25L465.33-29.25L465.33-29.25Q465.56-28.44 466.59-28.44L466.59-28.44L466.59-28.44Q466.72-28.44 467.78-28.81L467.78-28.81L468.47-29.06L468.47-29.06Q471.81-30.38 474.25-30.38L474.25-30.38L474.25-30.38Q479.38-30.38 481.53-26.38L481.53-26.38L481.53-26.38Q482.97-23.72 482.97-14.81L482.97-14.81L482.97-14.81Q482.97-10.63 483.03-9.84L483.03-9.84L483.03-9.84Q483.09-9.06 483.44-7.02L483.44-7.02L483.44-7.02Q483.78-4.97 483.78-4.75L483.78-4.75L483.78-4.75Q483.78-2.91 482.95-2.02L482.95-2.02L482.95-2.02Q482.13-1.13 479.98-1.13L479.98-1.13L479.98-1.13Q477.84-1.13 477.19-2.44L477.19-2.44L477.19-2.44Q476.84-3.13 476.84-6.41L476.84-6.41L476.75-11.91L476.84-16.88L476.84-16.88Q476.84-25.22 471.97-25.22L471.97-25.22L471.97-25.22Q467.66-25.22 465.81-21.59L465.81-21.59L465.81-21.59Q463.97-17.97 463.97-8.16L463.97-8.16L464.06-4.75L464.06-4.75Q464.06-3 462.97-1.80L462.97-1.80L462.97-1.80Q461.88-0.59 459.84-0.59ZM497.19-15.22L497.19-13.19L497.19-13.19Q497.19-9.09 499.06-6.38L499.06-6.38L499.06-6.38Q500.94-3.66 503.66-3.66L503.66-3.66L504.59-3.66L504.59-3.66Q507.81-3.66 510.05-6.91L510.05-6.91L510.05-6.91Q512.28-10.16 512.28-15.56L512.28-15.56L512.28-17.63L512.28-17.63Q512.28-21.81 510.45-24.48L510.45-24.48L510.45-24.48Q508.63-27.16 505.75-27.16L505.75-27.16L505.13-27.16L505.13-27.16Q501.78-27.16 499.52-23.84L499.52-23.84L499.52-23.84Q497.25-20.53 497.25-15.94L497.25-15.94L497.19-15.22ZM504.25 0.59L504.25 0.59L503.25 0.59L503.25 0.59Q497.78 0.59 494.34-3.22L494.34-3.22L494.34-3.22Q490.91-7.03 490.91-14.03L490.91-14.03L490.94-14.56L490.94-14.56Q490.94-22.25 495-26.69L495-26.69L495-26.69Q497.13-29.03 499.86-30.14L499.86-30.14L499.86-30.14Q502.59-31.25 505.06-31.25L505.06-31.25L506.59-31.25L506.59-31.25Q509.34-31.25 511.88-30.03L511.88-30.03L511.88-30.03Q519.13-26.53 519.13-16.84L519.13-16.84L519.13-16.34L519.13-16.34Q519.09-13.19 518.09-9.94L518.09-9.94L518.09-9.94Q516.09-3.53 510.41-0.88L510.41-0.88L510.41-0.88Q507.25 0.59 504.25 0.59ZM531.03-15.22L531.03-13.19L531.03-13.19Q531.03-9.09 532.91-6.38L532.91-6.38L532.91-6.38Q534.78-3.66 537.50-3.66L537.50-3.66L538.44-3.66L538.44-3.66Q541.66-3.66 543.89-6.91L543.89-6.91L543.89-6.91Q546.13-10.16 546.13-15.56L546.13-15.56L546.13-17.63L546.13-17.63Q546.13-21.81 544.30-24.48L544.30-24.48L544.30-24.48Q542.47-27.16 539.59-27.16L539.59-27.16L538.97-27.16L538.97-27.16Q535.63-27.16 533.36-23.84L533.36-23.84L533.36-23.84Q531.09-20.53 531.09-15.94L531.09-15.94L531.03-15.22ZM538.09 0.59L538.09 0.59L537.09 0.59L537.09 0.59Q531.63 0.59 528.19-3.22L528.19-3.22L528.19-3.22Q524.75-7.03 524.75-14.03L524.75-14.03L524.78-14.56L524.78-14.56Q524.78-22.25 528.84-26.69L528.84-26.69L528.84-26.69Q530.97-29.03 533.70-30.14L533.70-30.14L533.70-30.14Q536.44-31.25 538.91-31.25L538.91-31.25L540.44-31.25L540.44-31.25Q543.19-31.25 545.72-30.03L545.72-30.03L545.72-30.03Q552.97-26.53 552.97-16.84L552.97-16.84L552.97-16.34L552.97-16.34Q552.94-13.19 551.94-9.94L551.94-9.94L551.94-9.94Q549.94-3.53 544.25-0.88L544.25-0.88L544.25-0.88Q541.09 0.59 538.09 0.59ZM561.16-43.44L561.16-43.44L561.16-43.44Q561.16-45.72 565.44-45.72L565.44-45.72L566-45.72L566-45.72Q567.78-45.72 568.44-44.86L568.44-44.86L568.44-44.86Q569.09-44 569.09-41.53L569.09-41.53L568.84-36.88L568.84-36.88Q568.75-35.78 568.75-35.69L568.75-35.69L568.69-34.50L568.69-34.50Q568.63-33.34 568.56-32.16L568.56-32.16L568.47-30.97L568.38-29.19L568.38-29.19Q567.88-19.69 567.88-15.17L567.88-15.17L567.88-15.17Q567.88-10.66 568.28-8.69L568.28-8.69L568.28-8.69Q568.69-6.72 569.56-5.34L569.56-5.34L569.56-5.34Q570.44-3.97 570.44-3.53L570.44-3.53L570.44-3.16L570.44-3.16Q570.44-1.78 569.08-0.97L569.08-0.97L569.08-0.97Q567.72-0.16 565.41-0.16L565.41-0.16L563.78-0.16L563.78-0.16Q562.34-0.16 561.27-0.98L561.27-0.98L561.27-0.98Q560.19-1.81 560.19-2.88L560.19-2.88L560.19-3.72L560.38-5.03L560.38-5.03Q560.75-7.75 560.83-9.11L560.83-9.11L560.83-9.11Q560.91-10.47 561.09-12.89L561.09-12.89L561.09-12.89Q561.28-15.31 561.70-23.23L561.70-23.23L561.70-23.23Q562.13-31.16 562.13-31.75L562.13-31.75L562.25-34.09L562.31-36.41L562.31-36.41Q562.31-39.72 561.73-41.14L561.73-41.14L561.73-41.14Q561.16-42.56 561.16-43.44ZM580.14-17.45L580.14-17.45L580.14-17.45Q578.22-19.38 578.22-22.88L578.22-22.88L578.22-22.88Q578.22-26.38 581.34-28.89L581.34-28.89L581.34-28.89Q584.47-31.41 589.09-31.41L589.09-31.41L589.91-31.41L589.91-31.41Q594-31.41 596.42-30.25L596.42-30.25L596.42-30.25Q598.84-29.09 598.84-26.80L598.84-26.80L598.84-26.80Q598.84-24.50 596.81-24.50L596.81-24.50L596.81-24.50Q596.28-24.50 593.81-25.77L593.81-25.77L593.81-25.77Q591.34-27.03 589.16-27.03L589.16-27.03L589.16-27.03Q586.97-27.03 585.64-26.05L585.64-26.05L585.64-26.05Q584.31-25.06 584.31-23.34L584.31-23.34L584.31-23.34Q584.31-21.63 586.16-20.34L586.16-20.34L586.16-20.34Q587.22-19.59 591.17-17.97L591.17-17.97L591.17-17.97Q595.13-16.34 596.81-14.84L596.81-14.84L596.81-14.84Q599.53-12.44 599.53-8.69L599.53-8.69L599.53-8.69Q599.53-4.94 596.34-2.27L596.34-2.27L596.34-2.27Q593.16 0.41 588.06 0.41L588.06 0.41L587.25 0.41L587.25 0.41Q582.13 0.41 579.56-1.08L579.56-1.08L579.56-1.08Q577-2.56 577-4.95L577-4.95L577-4.95Q577-7.34 579-7.34L579-7.34L579-7.34Q579.66-7.34 582.42-5.66L582.42-5.66L582.42-5.66Q585.19-3.97 587.86-3.97L587.86-3.97L587.86-3.97Q590.53-3.97 591.88-5.11L591.88-5.11L591.88-5.11Q593.22-6.25 593.22-7.98L593.22-7.98L593.22-7.98Q593.22-9.72 591.53-11.03L591.53-11.03L591.53-11.03Q590.63-11.75 586.34-13.64L586.34-13.64L586.34-13.64Q582.06-15.53 580.14-17.45Z" transform="translate(-51.84503936767578, 98.15500068664551)"/></g></g><style/></svg>